# xmcd
#
# Track frame offsets:
#      150
#      14988
#      34784
#      53035
#      69835
#      83941
#      109528
#      125185
#      137329
#      150314
#      164400
#      179107
#      209801
#      221131
# 
# Disc length: 3092 seconds
#
# Revision: 4
# Processed by: cddbd v1.5.1PL0 Copyright (c) Steve Scherf et al.
#
# Submitted via: FreeRIP 1.21
#
DISCID=d00c120e
DTITLE=Νίκος Ξυλούρης - Παλικάρι απ' τα παλιά
DYEAR=2000
DGENRE=Ethnic
TTITLE0=Ητανε μια φορά
TTITLE1=Πώς να σωπάσω
TTITLE2=Αυτόν τον κόσμο τον καλό
TTITLE3=Στον ουρανό χορεύουνε
TTITLE4=Δακρύζω με παράπονο
TTITLE5=Ερωτόκριτος (Αποχαιρετισμός)
TTITLE6=Ο Αντρειωμένος
TTITLE7=Καβγάδες με το Γιασεμί
TTITLE8=Ο Πραματευτής
TTITLE9=Ο Αργαλειός
TTITLE10=Αποχαιρετισμός
TTITLE11=Ωραίος που είσαι Αυγερινέ
TTITLE12=Ο Ήλιος εβασίλεψε
TTITLE13=Γεννήθηκα σε μιά στιγμή
EXTD=YEAR: 2000 ID3G: 48
EXTT0=
EXTT1=
EXTT2=
EXTT3=
EXTT4=
EXTT5=
EXTT6=
EXTT7=
EXTT8=
EXTT9=
EXTT10=
EXTT11=
EXTT12=
EXTT13=
PLAYORDER=
